<?xml version="1.0" encoding="UTF-8" standalone="no"?>
<!DOCTYPE svg PUBLIC "-//W3C//DTD SVG 1.1//EN" "http://www.w3.org/Graphics/SVG/1.1/DTD/svg11.dtd">
<svg width="100%" height="100%" viewBox="0 0 96 96" version="1.1" xmlns="http://www.w3.org/2000/svg" xmlns:xlink="http://www.w3.org/1999/xlink" xml:space="preserve" xmlns:serif="http://www.serif.com/" style="fill-rule:evenodd;clip-rule:evenodd;">
    <g transform="matrix(1.210526,0,0,1.210526,-10.105263,-10.105263)">
        <path d="M86,18.261L86,77.739C86,82.298 82.298,86 77.739,86L18.261,86C13.702,86 10,82.298 10,77.739L10,18.261C10,13.702 13.702,10 18.261,10L77.739,10C82.298,10 86,13.702 86,18.261Z" style="fill:rgb(251,250,247);stroke:rgb(23,23,23);stroke-width:2px;"/>
    </g>
    <g transform="matrix(1,0,0,1,-11,-11)">
        <path d="M36,21L36,33C36,34.656 34.656,36 33,36L21,36C19.344,36 18,34.656 18,33L18,21C18,19.344 19.344,18 21,18L33,18C34.656,18 36,19.344 36,21Z" style="fill:rgb(180,58,31);"/>
    </g>
    <g transform="matrix(1.779545,0,0,1.779545,-36.827273,-40.386364)">
        <path d="M28,30L68,30L68,55L28,55L28,30ZM37,63.653L59,63.653M34,68.72L62,68.72M42,34.567L56,42.567L42,50.567L42,34.567Z" style="fill:none;fill-rule:nonzero;stroke:rgb(23,23,23);stroke-width:3px;stroke-linecap:round;stroke-linejoin:round;"/>
    </g>
</svg>
